<svg xmlns="http://www.w3.org/2000/svg" xmlns:xlink="http://www.w3.org/1999/xlink" width="2000" zoomAndPan="magnify" viewBox="0 0 1500 1499.999933" height="2000" preserveAspectRatio="xMidYMid meet" version="1.0"><defs><clipPath id="15e2eeb45f"><path d="M 150 150 L 1350 150 L 1350 412.5 L 150 412.5 Z M 150 150 " clip-rule="nonzero"/></clipPath><clipPath id="3c6f8e6f32"><path d="M 172.5 150 L 1327.5 150 C 1339.925781 150 1350 160.074219 1350 172.5 L 1350 390 C 1350 402.425781 1339.925781 412.5 1327.5 412.5 L 172.5 412.5 C 166.53125 412.5 160.808594 410.128906 156.589844 405.910156 C 152.371094 401.691406 150 395.96875 150 390 L 150 172.5 C 150 166.53125 152.371094 160.808594 156.589844 156.589844 C 160.808594 152.371094 166.53125 150 172.5 150 Z M 172.5 150 " clip-rule="nonzero"/></clipPath><clipPath id="5d8896a731"><path d="M 0 0 L 1200 0 L 1200 262.5 L 0 262.5 Z M 0 0 " clip-rule="nonzero"/></clipPath><clipPath id="9cd2f5deeb"><path d="M 22.5 0 L 1177.5 0 C 1189.925781 0 1200 10.074219 1200 22.5 L 1200 240 C 1200 252.425781 1189.925781 262.5 1177.5 262.5 L 22.5 262.5 C 16.53125 262.5 10.808594 260.128906 6.589844 255.910156 C 2.371094 251.691406 0 245.96875 0 240 L 0 22.5 C 0 16.53125 2.371094 10.808594 6.589844 6.589844 C 10.808594 2.371094 16.53125 0 22.5 0 Z M 22.5 0 " clip-rule="nonzero"/></clipPath><clipPath id="67797c0632"><rect x="0" width="1200" y="0" height="263"/></clipPath><clipPath id="900a402ba3"><path d="M 150 462 L 750 462 L 750 724.5 L 150 724.5 Z M 150 462 " clip-rule="nonzero"/></clipPath><clipPath id="e79a0408e6"><path d="M 172.5 462 L 727.5 462 C 733.46875 462 739.191406 464.371094 743.410156 468.589844 C 747.628906 472.808594 750 478.53125 750 484.5 L 750 702 C 750 707.96875 747.628906 713.691406 743.410156 717.910156 C 739.191406 722.128906 733.46875 724.5 727.5 724.5 L 172.5 724.5 C 166.53125 724.5 160.808594 722.128906 156.589844 717.910156 C 152.371094 713.691406 150 707.96875 150 702 L 150 484.5 C 150 472.074219 160.074219 462 172.5 462 Z M 172.5 462 " clip-rule="nonzero"/></clipPath><clipPath id="a71ea8896f"><path d="M 0 0 L 600 0 L 600 262.5 L 0 262.5 Z M 0 0 " clip-rule="nonzero"/></clipPath><clipPath id="283b13a611"><path d="M 22.5 0 L 577.5 0 C 583.46875 0 589.191406 2.371094 593.410156 6.589844 C 597.628906 10.808594 600 16.53125 600 22.5 L 600 240 C 600 245.96875 597.628906 251.691406 593.410156 255.910156 C 589.191406 260.128906 583.46875 262.5 577.5 262.5 L 22.5 262.5 C 16.53125 262.5 10.808594 260.128906 6.589844 255.910156 C 2.371094 251.691406 0 245.96875 0 240 L 0 22.5 C 0 10.074219 10.074219 0 22.5 0 Z M 22.5 0 " clip-rule="nonzero"/></clipPath><clipPath id="54a2d1787c"><rect x="0" width="600" y="0" height="263"/></clipPath><clipPath id="3aa24cb777"><path d="M 150 774 L 1050 774 L 1050 1036.5 L 150 1036.5 Z M 150 774 " clip-rule="nonzero"/></clipPath><clipPath id="8596f555e1"><path d="M 172.5 774 L 1027.5 774 C 1033.46875 774 1039.191406 776.371094 1043.410156 780.589844 C 1047.628906 784.808594 1050 790.53125 1050 796.5 L 1050 1014 C 1050 1019.96875 1047.628906 1025.691406 1043.410156 1029.910156 C 1039.191406 1034.128906 1033.46875 1036.5 1027.5 1036.5 L 172.5 1036.5 C 166.53125 1036.5 160.808594 1034.128906 156.589844 1029.910156 C 152.371094 1025.691406 150 1019.96875 150 1014 L 150 796.5 C 150 784.074219 160.074219 774 172.5 774 Z M 172.5 774 " clip-rule="nonzero"/></clipPath><clipPath id="0f3a5e01a2"><path d="M 0 0 L 900 0 L 900 262.5 L 0 262.5 Z M 0 0 " clip-rule="nonzero"/></clipPath><clipPath id="1fe063b053"><path d="M 22.5 0 L 877.5 0 C 883.46875 0 889.191406 2.371094 893.410156 6.589844 C 897.628906 10.808594 900 16.53125 900 22.5 L 900 240 C 900 245.96875 897.628906 251.691406 893.410156 255.910156 C 889.191406 260.128906 883.46875 262.5 877.5 262.5 L 22.5 262.5 C 16.53125 262.5 10.808594 260.128906 6.589844 255.910156 C 2.371094 251.691406 0 245.96875 0 240 L 0 22.5 C 0 10.074219 10.074219 0 22.5 0 Z M 22.5 0 " clip-rule="nonzero"/></clipPath><clipPath id="7854ae4fc3"><rect x="0" width="900" y="0" height="263"/></clipPath><clipPath id="5140bf9b1b"><path d="M 150 1086 L 600 1086 L 600 1348.5 L 150 1348.5 Z M 150 1086 " clip-rule="nonzero"/></clipPath><clipPath id="37301710d7"><path d="M 172.5 1086 L 577.5 1086 C 583.46875 1086 589.191406 1088.371094 593.410156 1092.589844 C 597.628906 1096.808594 600 1102.53125 600 1108.5 L 600 1326 C 600 1331.96875 597.628906 1337.691406 593.410156 1341.910156 C 589.191406 1346.128906 583.46875 1348.5 577.5 1348.5 L 172.5 1348.5 C 166.53125 1348.5 160.808594 1346.128906 156.589844 1341.910156 C 152.371094 1337.691406 150 1331.96875 150 1326 L 150 1108.5 C 150 1096.074219 160.074219 1086 172.5 1086 Z M 172.5 1086 " clip-rule="nonzero"/></clipPath><clipPath id="535bf0060f"><path d="M 0 0 L 450 0 L 450 262.5 L 0 262.5 Z M 0 0 " clip-rule="nonzero"/></clipPath><clipPath id="b86b6093c2"><path d="M 22.5 0 L 427.5 0 C 433.46875 0 439.191406 2.371094 443.410156 6.589844 C 447.628906 10.808594 450 16.53125 450 22.5 L 450 240 C 450 245.96875 447.628906 251.691406 443.410156 255.910156 C 439.191406 260.128906 433.46875 262.5 427.5 262.5 L 22.5 262.5 C 16.53125 262.5 10.808594 260.128906 6.589844 255.910156 C 2.371094 251.691406 0 245.96875 0 240 L 0 22.5 C 0 10.074219 10.074219 0 22.5 0 Z M 22.5 0 " clip-rule="nonzero"/></clipPath><clipPath id="f16fb6770b"><rect x="0" width="450" y="0" height="263"/></clipPath></defs><g clip-path="url(#15e2eeb45f)"><g clip-path="url(#3c6f8e6f32)"><g transform="matrix(1, 0, 0, 1, 150, 150)"><g clip-path="url(#67797c0632)"><g clip-path="url(#5d8896a731)"><g clip-path="url(#9cd2f5deeb)"><path fill="#ff4d1d" d="M 0 0 L 1199.707031 0 L 1199.707031 262.5 L 0 262.5 Z M 0 0 " fill-opacity="1" fill-rule="nonzero"/></g></g></g></g></g></g><g clip-path="url(#900a402ba3)"><g clip-path="url(#e79a0408e6)"><g transform="matrix(1, 0, 0, 1, 150, 462)"><g clip-path="url(#54a2d1787c)"><g clip-path="url(#a71ea8896f)"><g clip-path="url(#283b13a611)"><path fill="#ff4d1d" d="M 0 0 L 599.851562 0 L 599.851562 262.5 L 0 262.5 Z M 0 0 " fill-opacity="1" fill-rule="nonzero"/></g></g></g></g></g></g><g clip-path="url(#3aa24cb777)"><g clip-path="url(#8596f555e1)"><g transform="matrix(1, 0, 0, 1, 150, 774)"><g clip-path="url(#7854ae4fc3)"><g clip-path="url(#0f3a5e01a2)"><g clip-path="url(#1fe063b053)"><path fill="#ff4d1d" d="M 0 0 L 900.292969 0 L 900.292969 262.5 L 0 262.5 Z M 0 0 " fill-opacity="1" fill-rule="nonzero"/></g></g></g></g></g></g><g clip-path="url(#5140bf9b1b)"><g clip-path="url(#37301710d7)"><g transform="matrix(1, 0, 0, 1, 150, 1086)"><g clip-path="url(#f16fb6770b)"><g clip-path="url(#535bf0060f)"><g clip-path="url(#b86b6093c2)"><path fill="#ff4d1d" d="M 0 0 L 450.144531 0 L 450.144531 262.5 L 0 262.5 Z M 0 0 " fill-opacity="1" fill-rule="nonzero"/></g></g></g></g></g></g></svg>