<svg xmlns="http://www.w3.org/2000/svg" xmlns:xlink="http://www.w3.org/1999/xlink" width="2000" zoomAndPan="magnify" viewBox="0 0 1500 1499.999933" height="2000" preserveAspectRatio="xMidYMid meet" version="1.0"><defs><g/><clipPath id="6017fff934"><path d="M 257.625 150 L 1236.976562 150 L 1236.976562 364.101562 L 257.625 364.101562 Z M 257.625 150 " clip-rule="nonzero"/></clipPath><clipPath id="2c2a52e3f9"><path d="M 280.125 150 L 1213.878906 150 C 1226.304688 150 1236.378906 160.074219 1236.378906 172.5 L 1236.378906 341.601562 C 1236.378906 354.027344 1226.304688 364.101562 1213.878906 364.101562 L 280.125 364.101562 C 267.699219 364.101562 257.625 354.027344 257.625 341.601562 L 257.625 172.5 C 257.625 160.074219 267.699219 150 280.125 150 Z M 280.125 150 " clip-rule="nonzero"/></clipPath><clipPath id="f560d5dd4c"><path d="M 0.625 0 L 979.480469 0 L 979.480469 214.101562 L 0.625 214.101562 Z M 0.625 0 " clip-rule="nonzero"/></clipPath><clipPath id="d76cdfa85e"><path d="M 23.125 0 L 956.878906 0 C 969.304688 0 979.378906 10.074219 979.378906 22.5 L 979.378906 191.601562 C 979.378906 204.027344 969.304688 214.101562 956.878906 214.101562 L 23.125 214.101562 C 10.699219 214.101562 0.625 204.027344 0.625 191.601562 L 0.625 22.5 C 0.625 10.074219 10.699219 0 23.125 0 Z M 23.125 0 " clip-rule="nonzero"/></clipPath><clipPath id="8a82adfd0c"><rect x="0" width="980" y="0" height="215"/></clipPath><clipPath id="3f565bb01e"><path d="M 257.625 404.476562 L 747.71875 404.476562 L 747.71875 618.578125 L 257.625 618.578125 Z M 257.625 404.476562 " clip-rule="nonzero"/></clipPath><clipPath id="06a628b01e"><path d="M 280.125 404.476562 L 724.503906 404.476562 C 736.929688 404.476562 747.003906 414.550781 747.003906 426.976562 L 747.003906 596.078125 C 747.003906 608.503906 736.929688 618.578125 724.503906 618.578125 L 280.125 618.578125 C 267.699219 618.578125 257.625 608.503906 257.625 596.078125 L 257.625 426.976562 C 257.625 414.550781 267.699219 404.476562 280.125 404.476562 Z M 280.125 404.476562 " clip-rule="nonzero"/></clipPath><clipPath id="6488a2fa78"><path d="M 0.625 0.476562 L 490 0.476562 L 490 214.578125 L 0.625 214.578125 Z M 0.625 0.476562 " clip-rule="nonzero"/></clipPath><clipPath id="f718bec299"><path d="M 23.125 0.476562 L 467.503906 0.476562 C 479.929688 0.476562 490.003906 10.550781 490.003906 22.976562 L 490.003906 192.078125 C 490.003906 204.503906 479.929688 214.578125 467.503906 214.578125 L 23.125 214.578125 C 10.699219 214.578125 0.625 204.503906 0.625 192.078125 L 0.625 22.976562 C 0.625 10.550781 10.699219 0.476562 23.125 0.476562 Z M 23.125 0.476562 " clip-rule="nonzero"/></clipPath><clipPath id="199f5769a3"><rect x="0" width="491" y="0" height="215"/></clipPath><clipPath id="7c3fd89cf9"><path d="M 257.625 658.953125 L 991.929688 658.953125 L 991.929688 873.054688 L 257.625 873.054688 Z M 257.625 658.953125 " clip-rule="nonzero"/></clipPath><clipPath id="be4c4d9cbe"><path d="M 280.125 658.953125 L 969.191406 658.953125 C 981.617188 658.953125 991.691406 669.027344 991.691406 681.453125 L 991.691406 850.554688 C 991.691406 862.980469 981.617188 873.054688 969.191406 873.054688 L 280.125 873.054688 C 267.699219 873.054688 257.625 862.980469 257.625 850.554688 L 257.625 681.453125 C 257.625 669.027344 267.699219 658.953125 280.125 658.953125 Z M 280.125 658.953125 " clip-rule="nonzero"/></clipPath><clipPath id="0a4c9c04ad"><path d="M 0.625 0.953125 L 734.921875 0.953125 L 734.921875 215.054688 L 0.625 215.054688 Z M 0.625 0.953125 " clip-rule="nonzero"/></clipPath><clipPath id="16212402c2"><path d="M 23.125 0.953125 L 712.191406 0.953125 C 724.617188 0.953125 734.691406 11.027344 734.691406 23.453125 L 734.691406 192.554688 C 734.691406 204.980469 724.617188 215.054688 712.191406 215.054688 L 23.125 215.054688 C 10.699219 215.054688 0.625 204.980469 0.625 192.554688 L 0.625 23.453125 C 0.625 11.027344 10.699219 0.953125 23.125 0.953125 Z M 23.125 0.953125 " clip-rule="nonzero"/></clipPath><clipPath id="e60f095d37"><rect x="0" width="735" y="0" height="216"/></clipPath><clipPath id="66aa6f3e81"><path d="M 257.625 913.425781 L 624.777344 913.425781 L 624.777344 1127.53125 L 257.625 1127.53125 Z M 257.625 913.425781 " clip-rule="nonzero"/></clipPath><clipPath id="31a2867f2f"><path d="M 280.125 913.425781 L 602.160156 913.425781 C 614.585938 913.425781 624.660156 923.5 624.660156 935.925781 L 624.660156 1105.03125 C 624.660156 1117.457031 614.585938 1127.53125 602.160156 1127.53125 L 280.125 1127.53125 C 267.699219 1127.53125 257.625 1117.457031 257.625 1105.03125 L 257.625 935.925781 C 257.625 923.5 267.699219 913.425781 280.125 913.425781 Z M 280.125 913.425781 " clip-rule="nonzero"/></clipPath><clipPath id="f6439724a1"><path d="M 0.625 0.425781 L 367.71875 0.425781 L 367.71875 214.53125 L 0.625 214.53125 Z M 0.625 0.425781 " clip-rule="nonzero"/></clipPath><clipPath id="d027fb5952"><path d="M 23.125 0.425781 L 345.160156 0.425781 C 357.585938 0.425781 367.660156 10.5 367.660156 22.925781 L 367.660156 192.03125 C 367.660156 204.457031 357.585938 214.53125 345.160156 214.53125 L 23.125 214.53125 C 10.699219 214.53125 0.625 204.457031 0.625 192.03125 L 0.625 22.925781 C 0.625 10.5 10.699219 0.425781 23.125 0.425781 Z M 23.125 0.425781 " clip-rule="nonzero"/></clipPath><clipPath id="8ec72afccf"><rect x="0" width="368" y="0" height="215"/></clipPath><clipPath id="c9833e6f65"><rect x="0" width="317" y="0" height="362"/></clipPath></defs><g clip-path="url(#6017fff934)"><g clip-path="url(#2c2a52e3f9)"><g transform="matrix(1, 0, 0, 1, 257, 150)"><g clip-path="url(#8a82adfd0c)"><g clip-path="url(#f560d5dd4c)"><g clip-path="url(#d76cdfa85e)"><path fill="#f5f2ec" d="M 0.625 0 L 979.140625 0 L 979.140625 214.101562 L 0.625 214.101562 Z M 0.625 0 " fill-opacity="1" fill-rule="nonzero"/></g></g></g></g></g></g><g clip-path="url(#3f565bb01e)"><g clip-path="url(#06a628b01e)"><g transform="matrix(1, 0, 0, 1, 257, 404)"><g clip-path="url(#199f5769a3)"><g clip-path="url(#6488a2fa78)"><g clip-path="url(#f718bec299)"><path fill="#f5f2ec" d="M 0.625 0.476562 L 489.882812 0.476562 L 489.882812 214.578125 L 0.625 214.578125 Z M 0.625 0.476562 " fill-opacity="1" fill-rule="nonzero"/></g></g></g></g></g></g><g clip-path="url(#7c3fd89cf9)"><g clip-path="url(#be4c4d9cbe)"><g transform="matrix(1, 0, 0, 1, 257, 658)"><g clip-path="url(#e60f095d37)"><g clip-path="url(#0a4c9c04ad)"><g clip-path="url(#16212402c2)"><path fill="#f5f2ec" d="M 0.625 0.953125 L 734.929688 0.953125 L 734.929688 215.054688 L 0.625 215.054688 Z M 0.625 0.953125 " fill-opacity="1" fill-rule="nonzero"/></g></g></g></g></g></g><g clip-path="url(#66aa6f3e81)"><g clip-path="url(#31a2867f2f)"><g transform="matrix(1, 0, 0, 1, 257, 913)"><g clip-path="url(#8ec72afccf)"><g clip-path="url(#f6439724a1)"><g clip-path="url(#d027fb5952)"><path fill="#f5f2ec" d="M 0.625 0.425781 L 367.777344 0.425781 L 367.777344 214.53125 L 0.625 214.53125 Z M 0.625 0.425781 " fill-opacity="1" fill-rule="nonzero"/></g></g></g></g></g></g><g fill="#f5f2ec" fill-opacity="1"><g transform="translate(254.655031, 1345.898312)"><g><path d="M 63.046875 2.234375 C 50.585938 2.234375 39.613281 -0.878906 30.125 -7.109375 C 20.644531 -13.335938 13.859375 -21.289062 9.765625 -30.96875 L 22.046875 -37.9375 C 25.015625 -30.125 30.078125 -23.707031 37.234375 -18.6875 C 44.398438 -13.664062 53.097656 -11.15625 63.328125 -11.15625 C 73.554688 -11.15625 82.34375 -13.851562 89.6875 -19.25 C 97.039062 -24.644531 100.71875 -32.269531 100.71875 -42.125 C 100.71875 -49.5625 98.71875 -55.601562 94.71875 -60.25 C 90.71875 -64.90625 85.554688 -68.8125 79.234375 -71.96875 C 72.910156 -75.132812 66.164062 -78.160156 59 -81.046875 C 51.84375 -83.929688 45.101562 -87.234375 38.78125 -90.953125 C 32.457031 -94.671875 27.296875 -99.410156 23.296875 -105.171875 C 19.296875 -110.941406 17.296875 -118.289062 17.296875 -127.21875 C 17.296875 -136.332031 19.429688 -144.003906 23.703125 -150.234375 C 27.984375 -156.460938 33.566406 -161.25 40.453125 -164.59375 C 47.335938 -167.945312 54.773438 -169.625 62.765625 -169.625 C 72.066406 -169.625 80.484375 -167.671875 88.015625 -163.765625 C 95.546875 -159.859375 101.453125 -155.019531 105.734375 -149.25 L 95.140625 -140.609375 C 91.972656 -145.253906 87.597656 -149.019531 82.015625 -151.90625 C 76.441406 -154.789062 70.117188 -156.234375 63.046875 -156.234375 C 54.679688 -156.234375 47.195312 -153.90625 40.59375 -149.25 C 33.988281 -144.601562 30.6875 -137.535156 30.6875 -128.046875 C 30.6875 -120.796875 32.6875 -114.9375 36.6875 -110.46875 C 40.6875 -106.007812 45.847656 -102.195312 52.171875 -99.03125 C 58.492188 -95.875 65.234375 -92.851562 72.390625 -89.96875 C 79.554688 -87.082031 86.300781 -83.734375 92.625 -79.921875 C 98.945312 -76.109375 104.109375 -71.273438 108.109375 -65.421875 C 112.109375 -59.566406 114.109375 -51.988281 114.109375 -42.6875 C 114.109375 -33.007812 111.734375 -24.820312 106.984375 -18.125 C 102.242188 -11.4375 96.015625 -6.367188 88.296875 -2.921875 C 80.578125 0.511719 72.160156 2.234375 63.046875 2.234375 Z M 63.046875 2.234375 "/></g></g></g><g fill="#f5f2ec" fill-opacity="1"><g transform="translate(384.106602, 1345.898312)"><g><path d="M 111.59375 -167.390625 L 111.59375 -154 L 64.453125 -154 L 64.453125 0 L 51.046875 0 L 51.046875 -154 L 3.90625 -154 L 3.90625 -167.390625 Z M 111.59375 -167.390625 "/></g></g></g><g fill="#f5f2ec" fill-opacity="1"><g transform="translate(505.467431, 1345.898312)"><g><path d="M 82.015625 2.234375 C 70.484375 2.234375 60.066406 -0.273438 50.765625 -5.296875 C 41.472656 -10.316406 34.175781 -17.195312 28.875 -25.9375 C 23.570312 -34.6875 20.921875 -44.453125 20.921875 -55.234375 L 20.921875 -167.390625 L 34.3125 -167.390625 L 34.3125 -57.1875 C 34.3125 -48.445312 36.40625 -40.585938 40.59375 -33.609375 C 44.78125 -26.640625 50.5 -21.15625 57.75 -17.15625 C 65 -13.15625 73.085938 -11.15625 82.015625 -11.15625 C 91.128906 -11.15625 99.3125 -13.15625 106.5625 -17.15625 C 113.820312 -21.15625 119.539062 -26.640625 123.71875 -33.609375 C 127.90625 -40.585938 130 -48.445312 130 -57.1875 L 130 -167.390625 L 143.390625 -167.390625 L 143.390625 -55.234375 C 143.390625 -44.453125 140.738281 -34.6875 135.4375 -25.9375 C 130.144531 -17.195312 122.847656 -10.316406 113.546875 -5.296875 C 104.242188 -0.273438 93.734375 2.234375 82.015625 2.234375 Z M 82.015625 2.234375 "/></g></g></g><g fill="#f5f2ec" fill-opacity="1"><g transform="translate(675.372537, 1345.898312)"><g><path d="M 21.765625 0 L 21.765625 -167.390625 L 65.28125 -167.390625 C 76.8125 -167.390625 87.644531 -165.203125 97.78125 -160.828125 C 107.914062 -156.460938 116.796875 -150.46875 124.421875 -142.84375 C 132.046875 -135.21875 138.046875 -126.335938 142.421875 -116.203125 C 146.796875 -106.066406 148.984375 -95.226562 148.984375 -83.6875 C 148.984375 -72.15625 146.796875 -61.320312 142.421875 -51.1875 C 138.046875 -41.050781 132.046875 -32.171875 124.421875 -24.546875 C 116.796875 -16.921875 107.914062 -10.921875 97.78125 -6.546875 C 87.644531 -2.179688 76.8125 0 65.28125 0 Z M 35.15625 -13.390625 L 65 -13.390625 C 78.207031 -13.390625 90.109375 -16.457031 100.703125 -22.59375 C 111.304688 -28.726562 119.769531 -37.144531 126.09375 -47.84375 C 132.425781 -58.539062 135.59375 -70.488281 135.59375 -83.6875 C 135.59375 -97.082031 132.425781 -109.082031 126.09375 -119.6875 C 119.769531 -130.289062 111.304688 -138.660156 100.703125 -144.796875 C 90.109375 -150.929688 78.207031 -154 65 -154 L 35.15625 -154 Z M 35.15625 -13.390625 "/></g></g></g><g fill="#f5f2ec" fill-opacity="1"><g transform="translate(845.277687, 1345.898312)"><g><path d="M 23.15625 0 L 23.15625 -167.390625 L 36.546875 -167.390625 L 36.546875 0 Z M 23.15625 0 "/></g></g></g><g fill="#f5f2ec" fill-opacity="1"><g transform="translate(910.282412, 1345.898312)"><g><path d="M 101.265625 2.234375 C 89.367188 2.234375 78.257812 0.00390625 67.9375 -4.453125 C 57.613281 -8.921875 48.5 -15.109375 40.59375 -23.015625 C 32.6875 -30.921875 26.5 -40.035156 22.03125 -50.359375 C 17.570312 -60.679688 15.34375 -71.789062 15.34375 -83.6875 C 15.34375 -95.59375 17.570312 -106.707031 22.03125 -117.03125 C 26.5 -127.351562 32.6875 -136.46875 40.59375 -144.375 C 48.5 -152.28125 57.613281 -158.460938 67.9375 -162.921875 C 78.257812 -167.390625 89.367188 -169.625 101.265625 -169.625 C 113.171875 -169.625 124.285156 -167.390625 134.609375 -162.921875 C 144.929688 -158.460938 154.046875 -152.28125 161.953125 -144.375 C 169.859375 -136.46875 176.039062 -127.351562 180.5 -117.03125 C 184.96875 -106.707031 187.203125 -95.59375 187.203125 -83.6875 C 187.203125 -71.789062 184.96875 -60.679688 180.5 -50.359375 C 176.039062 -40.035156 169.859375 -30.921875 161.953125 -23.015625 C 154.046875 -15.109375 144.929688 -8.921875 134.609375 -4.453125 C 124.285156 0.00390625 113.171875 2.234375 101.265625 2.234375 Z M 101.265625 -11.15625 C 114.660156 -11.15625 126.84375 -14.410156 137.8125 -20.921875 C 148.789062 -27.429688 157.535156 -36.171875 164.046875 -47.140625 C 170.554688 -58.117188 173.8125 -70.300781 173.8125 -83.6875 C 173.8125 -97.082031 170.554688 -109.265625 164.046875 -120.234375 C 157.535156 -131.210938 148.789062 -139.957031 137.8125 -146.46875 C 126.84375 -152.976562 114.660156 -156.234375 101.265625 -156.234375 C 87.878906 -156.234375 75.695312 -152.976562 64.71875 -146.46875 C 53.75 -139.957031 45.007812 -131.210938 38.5 -120.234375 C 31.988281 -109.265625 28.734375 -97.082031 28.734375 -83.6875 C 28.734375 -70.300781 31.988281 -58.117188 38.5 -47.140625 C 45.007812 -36.171875 53.75 -27.429688 64.71875 -20.921875 C 75.695312 -14.410156 87.878906 -11.15625 101.265625 -11.15625 Z M 101.265625 -11.15625 "/></g></g></g><g fill="#f5f2ec" fill-opacity="1"><g transform="translate(1118.409224, 1345.898312)"><g><path d="M 63.046875 2.234375 C 50.585938 2.234375 39.613281 -0.878906 30.125 -7.109375 C 20.644531 -13.335938 13.859375 -21.289062 9.765625 -30.96875 L 22.046875 -37.9375 C 25.015625 -30.125 30.078125 -23.707031 37.234375 -18.6875 C 44.398438 -13.664062 53.097656 -11.15625 63.328125 -11.15625 C 73.554688 -11.15625 82.34375 -13.851562 89.6875 -19.25 C 97.039062 -24.644531 100.71875 -32.269531 100.71875 -42.125 C 100.71875 -49.5625 98.71875 -55.601562 94.71875 -60.25 C 90.71875 -64.90625 85.554688 -68.8125 79.234375 -71.96875 C 72.910156 -75.132812 66.164062 -78.160156 59 -81.046875 C 51.84375 -83.929688 45.101562 -87.234375 38.78125 -90.953125 C 32.457031 -94.671875 27.296875 -99.410156 23.296875 -105.171875 C 19.296875 -110.941406 17.296875 -118.289062 17.296875 -127.21875 C 17.296875 -136.332031 19.429688 -144.003906 23.703125 -150.234375 C 27.984375 -156.460938 33.566406 -161.25 40.453125 -164.59375 C 47.335938 -167.945312 54.773438 -169.625 62.765625 -169.625 C 72.066406 -169.625 80.484375 -167.671875 88.015625 -163.765625 C 95.546875 -159.859375 101.453125 -155.019531 105.734375 -149.25 L 95.140625 -140.609375 C 91.972656 -145.253906 87.597656 -149.019531 82.015625 -151.90625 C 76.441406 -154.789062 70.117188 -156.234375 63.046875 -156.234375 C 54.679688 -156.234375 47.195312 -153.90625 40.59375 -149.25 C 33.988281 -144.601562 30.6875 -137.535156 30.6875 -128.046875 C 30.6875 -120.796875 32.6875 -114.9375 36.6875 -110.46875 C 40.6875 -106.007812 45.847656 -102.195312 52.171875 -99.03125 C 58.492188 -95.875 65.234375 -92.851562 72.390625 -89.96875 C 79.554688 -87.082031 86.300781 -83.734375 92.625 -79.921875 C 98.945312 -76.109375 104.109375 -71.273438 108.109375 -65.421875 C 112.109375 -59.566406 114.109375 -51.988281 114.109375 -42.6875 C 114.109375 -33.007812 111.734375 -24.820312 106.984375 -18.125 C 102.242188 -11.4375 96.015625 -6.367188 88.296875 -2.921875 C 80.578125 0.511719 72.160156 2.234375 63.046875 2.234375 Z M 63.046875 2.234375 "/></g></g></g><g transform="matrix(1, 0, 0, 1, 642, 846)"><g clip-path="url(#c9833e6f65)"><g fill="#f5f2ec" fill-opacity="1"><g transform="translate(1.088158, 280.569278)"><g><path d="M 59.65625 1.96875 C 42.632812 1.96875 29.703125 -3.226562 20.859375 -13.625 C 12.023438 -24.019531 7.609375 -38.628906 7.609375 -57.453125 L 7.609375 -157.859375 C 7.609375 -176.023438 12.023438 -189.726562 20.859375 -198.96875 C 29.703125 -208.21875 42.632812 -212.84375 59.65625 -212.84375 C 76.675781 -212.84375 89.601562 -208.21875 98.4375 -198.96875 C 107.28125 -189.726562 111.703125 -176.023438 111.703125 -157.859375 L 111.703125 -57.453125 C 111.703125 -38.460938 107.28125 -23.8125 98.4375 -13.5 C 89.601562 -3.1875 76.675781 1.96875 59.65625 1.96875 Z M 59.65625 -36.828125 C 63.414062 -36.828125 65.953125 -38.460938 67.265625 -41.734375 C 68.578125 -45.003906 69.234375 -49.585938 69.234375 -55.484375 L 69.234375 -158.59375 C 69.234375 -163.175781 68.617188 -166.898438 67.390625 -169.765625 C 66.160156 -172.628906 63.664062 -174.0625 59.90625 -174.0625 C 52.863281 -174.0625 49.34375 -168.742188 49.34375 -158.109375 L 49.34375 -55.234375 C 49.34375 -49.179688 50.078125 -44.597656 51.546875 -41.484375 C 53.023438 -38.378906 55.726562 -36.828125 59.65625 -36.828125 Z M 59.65625 -36.828125 "/></g></g></g><g fill="#f5f2ec" fill-opacity="1"><g transform="translate(120.40187, 280.569278)"><g><path d="M 27.5 0 L 27.5 -170.375 L 2.453125 -170.375 L 2.453125 -210.890625 L 94.765625 -210.890625 L 94.765625 -170.375 L 69.71875 -170.375 L 69.71875 0 Z M 27.5 0 "/></g></g></g><g fill="#f5f2ec" fill-opacity="1"><g transform="translate(217.620484, 280.569278)"><g><path d="M 9.328125 0 L 9.328125 -210.890625 L 93.78125 -210.890625 L 93.78125 -169.890625 L 51.796875 -169.890625 L 51.796875 -136.25 L 91.578125 -136.25 L 91.578125 -95.75 L 51.796875 -95.75 L 51.796875 0 Z M 9.328125 0 "/></g></g></g></g></g></svg>