<svg xmlns="http://www.w3.org/2000/svg" xmlns:xlink="http://www.w3.org/1999/xlink" width="2000" zoomAndPan="magnify" viewBox="0 0 1500 1499.999933" height="2000" preserveAspectRatio="xMidYMid meet" version="1.0"><defs><g/><clipPath id="3179a6e5dd"><path d="M 150 150 L 1350 150 L 1350 412.5 L 150 412.5 Z M 150 150 " clip-rule="nonzero"/></clipPath><clipPath id="568e4e79a8"><path d="M 172.5 150 L 1327.5 150 C 1339.925781 150 1350 160.074219 1350 172.5 L 1350 390 C 1350 402.425781 1339.925781 412.5 1327.5 412.5 L 172.5 412.5 C 166.53125 412.5 160.808594 410.128906 156.589844 405.910156 C 152.371094 401.691406 150 395.96875 150 390 L 150 172.5 C 150 166.53125 152.371094 160.808594 156.589844 156.589844 C 160.808594 152.371094 166.53125 150 172.5 150 Z M 172.5 150 " clip-rule="nonzero"/></clipPath><clipPath id="a61f253ed0"><path d="M 0 0 L 1200 0 L 1200 262.5 L 0 262.5 Z M 0 0 " clip-rule="nonzero"/></clipPath><clipPath id="7918decb36"><path d="M 22.5 0 L 1177.5 0 C 1189.925781 0 1200 10.074219 1200 22.5 L 1200 240 C 1200 252.425781 1189.925781 262.5 1177.5 262.5 L 22.5 262.5 C 16.53125 262.5 10.808594 260.128906 6.589844 255.910156 C 2.371094 251.691406 0 245.96875 0 240 L 0 22.5 C 0 16.53125 2.371094 10.808594 6.589844 6.589844 C 10.808594 2.371094 16.53125 0 22.5 0 Z M 22.5 0 " clip-rule="nonzero"/></clipPath><clipPath id="f6f8e67e44"><rect x="0" width="1200" y="0" height="263"/></clipPath><clipPath id="789d12fe3b"><path d="M 150 462 L 750 462 L 750 724.5 L 150 724.5 Z M 150 462 " clip-rule="nonzero"/></clipPath><clipPath id="2e3c18696e"><path d="M 172.5 462 L 727.5 462 C 733.46875 462 739.191406 464.371094 743.410156 468.589844 C 747.628906 472.808594 750 478.53125 750 484.5 L 750 702 C 750 707.96875 747.628906 713.691406 743.410156 717.910156 C 739.191406 722.128906 733.46875 724.5 727.5 724.5 L 172.5 724.5 C 166.53125 724.5 160.808594 722.128906 156.589844 717.910156 C 152.371094 713.691406 150 707.96875 150 702 L 150 484.5 C 150 472.074219 160.074219 462 172.5 462 Z M 172.5 462 " clip-rule="nonzero"/></clipPath><clipPath id="30ba874986"><path d="M 0 0 L 600 0 L 600 262.5 L 0 262.5 Z M 0 0 " clip-rule="nonzero"/></clipPath><clipPath id="2a1de405ab"><path d="M 22.5 0 L 577.5 0 C 583.46875 0 589.191406 2.371094 593.410156 6.589844 C 597.628906 10.808594 600 16.53125 600 22.5 L 600 240 C 600 245.96875 597.628906 251.691406 593.410156 255.910156 C 589.191406 260.128906 583.46875 262.5 577.5 262.5 L 22.5 262.5 C 16.53125 262.5 10.808594 260.128906 6.589844 255.910156 C 2.371094 251.691406 0 245.96875 0 240 L 0 22.5 C 0 10.074219 10.074219 0 22.5 0 Z M 22.5 0 " clip-rule="nonzero"/></clipPath><clipPath id="c3923f92be"><rect x="0" width="600" y="0" height="263"/></clipPath><clipPath id="6c758763d1"><path d="M 150 774 L 1050 774 L 1050 1036.5 L 150 1036.5 Z M 150 774 " clip-rule="nonzero"/></clipPath><clipPath id="32d076eb47"><path d="M 172.5 774 L 1027.5 774 C 1033.46875 774 1039.191406 776.371094 1043.410156 780.589844 C 1047.628906 784.808594 1050 790.53125 1050 796.5 L 1050 1014 C 1050 1019.96875 1047.628906 1025.691406 1043.410156 1029.910156 C 1039.191406 1034.128906 1033.46875 1036.5 1027.5 1036.5 L 172.5 1036.5 C 166.53125 1036.5 160.808594 1034.128906 156.589844 1029.910156 C 152.371094 1025.691406 150 1019.96875 150 1014 L 150 796.5 C 150 784.074219 160.074219 774 172.5 774 Z M 172.5 774 " clip-rule="nonzero"/></clipPath><clipPath id="eb95995b48"><path d="M 0 0 L 900 0 L 900 262.5 L 0 262.5 Z M 0 0 " clip-rule="nonzero"/></clipPath><clipPath id="9d119d715f"><path d="M 22.5 0 L 877.5 0 C 883.46875 0 889.191406 2.371094 893.410156 6.589844 C 897.628906 10.808594 900 16.53125 900 22.5 L 900 240 C 900 245.96875 897.628906 251.691406 893.410156 255.910156 C 889.191406 260.128906 883.46875 262.5 877.5 262.5 L 22.5 262.5 C 16.53125 262.5 10.808594 260.128906 6.589844 255.910156 C 2.371094 251.691406 0 245.96875 0 240 L 0 22.5 C 0 10.074219 10.074219 0 22.5 0 Z M 22.5 0 " clip-rule="nonzero"/></clipPath><clipPath id="c5ccf112e5"><rect x="0" width="900" y="0" height="263"/></clipPath><clipPath id="9fcbbb8454"><path d="M 150 1086 L 600 1086 L 600 1348.5 L 150 1348.5 Z M 150 1086 " clip-rule="nonzero"/></clipPath><clipPath id="802604be09"><path d="M 172.5 1086 L 577.5 1086 C 583.46875 1086 589.191406 1088.371094 593.410156 1092.589844 C 597.628906 1096.808594 600 1102.53125 600 1108.5 L 600 1326 C 600 1331.96875 597.628906 1337.691406 593.410156 1341.910156 C 589.191406 1346.128906 583.46875 1348.5 577.5 1348.5 L 172.5 1348.5 C 166.53125 1348.5 160.808594 1346.128906 156.589844 1341.910156 C 152.371094 1337.691406 150 1331.96875 150 1326 L 150 1108.5 C 150 1096.074219 160.074219 1086 172.5 1086 Z M 172.5 1086 " clip-rule="nonzero"/></clipPath><clipPath id="f89af58464"><path d="M 0 0 L 450 0 L 450 262.5 L 0 262.5 Z M 0 0 " clip-rule="nonzero"/></clipPath><clipPath id="6070b755b7"><path d="M 22.5 0 L 427.5 0 C 433.46875 0 439.191406 2.371094 443.410156 6.589844 C 447.628906 10.808594 450 16.53125 450 22.5 L 450 240 C 450 245.96875 447.628906 251.691406 443.410156 255.910156 C 439.191406 260.128906 433.46875 262.5 427.5 262.5 L 22.5 262.5 C 16.53125 262.5 10.808594 260.128906 6.589844 255.910156 C 2.371094 251.691406 0 245.96875 0 240 L 0 22.5 C 0 10.074219 10.074219 0 22.5 0 Z M 22.5 0 " clip-rule="nonzero"/></clipPath><clipPath id="80c2dbfd75"><rect x="0" width="450" y="0" height="263"/></clipPath><clipPath id="9c7b06daa4"><rect x="0" width="388" y="0" height="443"/></clipPath></defs><g clip-path="url(#3179a6e5dd)"><g clip-path="url(#568e4e79a8)"><g transform="matrix(1, 0, 0, 1, 150, 150)"><g clip-path="url(#f6f8e67e44)"><g clip-path="url(#a61f253ed0)"><g clip-path="url(#7918decb36)"><path fill="#1a1a1a" d="M 0 0 L 1199.707031 0 L 1199.707031 262.5 L 0 262.5 Z M 0 0 " fill-opacity="1" fill-rule="nonzero"/></g></g></g></g></g></g><g clip-path="url(#789d12fe3b)"><g clip-path="url(#2e3c18696e)"><g transform="matrix(1, 0, 0, 1, 150, 462)"><g clip-path="url(#c3923f92be)"><g clip-path="url(#30ba874986)"><g clip-path="url(#2a1de405ab)"><path fill="#1a1a1a" d="M 0 0 L 599.851562 0 L 599.851562 262.5 L 0 262.5 Z M 0 0 " fill-opacity="1" fill-rule="nonzero"/></g></g></g></g></g></g><g clip-path="url(#6c758763d1)"><g clip-path="url(#32d076eb47)"><g transform="matrix(1, 0, 0, 1, 150, 774)"><g clip-path="url(#c5ccf112e5)"><g clip-path="url(#eb95995b48)"><g clip-path="url(#9d119d715f)"><path fill="#1a1a1a" d="M 0 0 L 900.292969 0 L 900.292969 262.5 L 0 262.5 Z M 0 0 " fill-opacity="1" fill-rule="nonzero"/></g></g></g></g></g></g><g clip-path="url(#9fcbbb8454)"><g clip-path="url(#802604be09)"><g transform="matrix(1, 0, 0, 1, 150, 1086)"><g clip-path="url(#80c2dbfd75)"><g clip-path="url(#f89af58464)"><g clip-path="url(#6070b755b7)"><path fill="#1a1a1a" d="M 0 0 L 450.144531 0 L 450.144531 262.5 L 0 262.5 Z M 0 0 " fill-opacity="1" fill-rule="nonzero"/></g></g></g></g></g></g><g transform="matrix(1, 0, 0, 1, 622, 1004)"><g clip-path="url(#9c7b06daa4)"><g fill="#1a1a1a" fill-opacity="1"><g transform="translate(0.59546, 343.322135)"><g><path d="M 73.140625 2.40625 C 52.273438 2.40625 36.421875 -3.960938 25.578125 -16.703125 C 14.742188 -29.441406 9.328125 -47.351562 9.328125 -70.4375 L 9.328125 -193.546875 C 9.328125 -215.816406 14.742188 -232.617188 25.578125 -243.953125 C 36.421875 -255.296875 52.273438 -260.96875 73.140625 -260.96875 C 94.015625 -260.96875 109.867188 -255.296875 120.703125 -243.953125 C 131.535156 -232.617188 136.953125 -215.816406 136.953125 -193.546875 L 136.953125 -70.4375 C 136.953125 -47.15625 131.535156 -29.191406 120.703125 -16.546875 C 109.867188 -3.910156 94.015625 2.40625 73.140625 2.40625 Z M 73.140625 -45.15625 C 77.753906 -45.15625 80.863281 -47.160156 82.46875 -51.171875 C 84.070312 -55.179688 84.875 -60.800781 84.875 -68.03125 L 84.875 -194.453125 C 84.875 -200.066406 84.117188 -204.628906 82.609375 -208.140625 C 81.109375 -211.648438 78.050781 -213.40625 73.4375 -213.40625 C 64.8125 -213.40625 60.5 -206.882812 60.5 -193.84375 L 60.5 -67.71875 C 60.5 -60.300781 61.398438 -54.6875 63.203125 -50.875 C 65.015625 -47.0625 68.328125 -45.15625 73.140625 -45.15625 Z M 73.140625 -45.15625 "/></g></g></g><g fill="#1a1a1a" fill-opacity="1"><g transform="translate(146.879949, 343.322135)"><g><path d="M 33.71875 0 L 33.71875 -208.890625 L 3.015625 -208.890625 L 3.015625 -258.5625 L 116.1875 -258.5625 L 116.1875 -208.890625 L 85.484375 -208.890625 L 85.484375 0 Z M 33.71875 0 "/></g></g></g><g fill="#1a1a1a" fill-opacity="1"><g transform="translate(266.07476, 343.322135)"><g><path d="M 11.4375 0 L 11.4375 -258.5625 L 114.984375 -258.5625 L 114.984375 -208.296875 L 63.515625 -208.296875 L 63.515625 -167.0625 L 112.265625 -167.0625 L 112.265625 -117.390625 L 63.515625 -117.390625 L 63.515625 0 Z M 11.4375 0 "/></g></g></g></g></g></svg>